<svg xmlns="http://www.w3.org/2000/svg" fill="#ffffff" viewBox="0 0 24 24" width="24" height="24">
  <path d="M13.5 2A1.5 1.5 0 0115 3.5 1.5 1.5 0 0113.5 5H11a1 1 0 00-1 1v1h1a2.5 2.5 0 012.5 2.5 2.5 2.5 0 01-2.5 2.5H10v1a1 1 0 001 1h1.5A1.5 1.5 0 0115 15.5 1.5 1.5 0 0113.5 17H11v2a1 1 0 001 1h2.5A1.5 1.5 0 0116 21.5 1.5 1.5 0 0114.5 23h-5A1.5 1.5 0 018 21.5 1.5 1.5 0 019.5 20H11a1 1 0 001-1v-1H9.5A1.5 1.5 0 018 15.5 1.5 1.5 0 019.5 14H11a1 1 0 001-1v-1H8.5A1.5 1.5 0 017 10.5 1.5 1.5 0 018.5 9H10V8a1 1 0 00-1-1H6.5A1.5 1.5 0 015 5.5 1.5 1.5 0 016.5 4H9V2a1 1 0 00-1-1H3.5A1.5 1.5 0 012 2.5 1.5 1.5 0 013.5 4H6v2a1 1 0 001 1h2V5H7.5A1.5 1.5 0 016 3.5 1.5 1.5 0 017.5 2H13.5z"/>
</svg>
